<svg xmlns="http://www.w3.org/2000/svg" viewBox="0 0 520 180" width="2080" height="720">
  <rect width="100%" height="100%" fill="white"/>
  <g transform="translate(-20, 0) scale(0.7)">
    
    <g fill="#143629" stroke="none">
      <path d="M 89.4 47.2
               q 9.0 -12.6 21.6 -14.4
               q -4.5 9.0 -14.4 16.2
               z"/>
      <path d="M 150.6 47.2
               q -9.0 -12.6 -21.6 -14.4
               q 4.5 9.0 14.4 16.2
               z"/>
      <path d="M 120.0 41.8
               q -9.0 -16.2 -3.6 -25.2
               q 3.6 3.6 3.6 10.8
               q 0.0 -7.2 3.6 -10.8
               q 5.4 9.0 -3.6 25.2
               z"/>
      <ellipse cx="100.2" cy="41.8" rx="6.3" ry="3.1" transform="rotate(-22 100.2 41.8)"/>
      <ellipse cx="139.8" cy="41.8" rx="6.3" ry="3.1" transform="rotate(22 139.8 41.8)"/>
      <ellipse cx="78.6" cy="49.0" rx="7.2" ry="3.6" transform="rotate(-18 78.6 49.0)"/>
      <ellipse cx="161.4" cy="49.0" rx="7.2" ry="3.6" transform="rotate(18 161.4 49.0)"/>
    </g>
    
    
    <g>
      <rect x="183.0" y="141.0" width="10" height="14" fill="#143629" transform="rotate(0.0 188.0 148.0)" rx="1.5"/><rect x="171.9" y="167.9" width="10" height="14" fill="#143629" transform="rotate(45.0 176.9 174.9)" rx="1.5"/><rect x="145.0" y="179.0" width="10" height="14" fill="#143629" transform="rotate(90.0 150.0 186.0)" rx="1.5"/><rect x="118.1" y="167.9" width="10" height="14" fill="#143629" transform="rotate(135.0 123.1 174.9)" rx="1.5"/><rect x="107.0" y="141.0" width="10" height="14" fill="#143629" transform="rotate(180.0 112.0 148.0)" rx="1.5"/><rect x="118.1" y="114.1" width="10" height="14" fill="#143629" transform="rotate(225.0 123.1 121.1)" rx="1.5"/><rect x="145.0" y="103.0" width="10" height="14" fill="#143629" transform="rotate(270.0 150.0 110.0)" rx="1.5"/><rect x="171.9" y="114.1" width="10" height="14" fill="#143629" transform="rotate(315.0 176.9 121.1)" rx="1.5"/>
      <circle cx="150" cy="148" r="34" fill="#143629"/>
      <circle cx="150" cy="148" r="15" fill="white"/>
    </g>
    
  </g>
  <text x="225" y="72" font-family="Georgia, Times New Roman, serif" font-size="42" font-weight="700" letter-spacing="1.2" fill="#143629">HONEYSUCKLE</text>
  <text x="225" y="115" font-family="Arial, Helvetica, sans-serif" font-size="22" font-weight="700" letter-spacing="1.5" fill="#143629">AUTOMATION</text>
</svg>