<svg xmlns="http://www.w3.org/2000/svg" viewBox="0 0 420 180" width="1680" height="720">
  <rect width="100%" height="100%" fill="white"/>
  
    <g fill="#143629" stroke="none">
      <path d="M 179.4 35.2
               q 9.0 -12.6 21.6 -14.4
               q -4.5 9.0 -14.4 16.2
               z"/>
      <path d="M 240.6 35.2
               q -9.0 -12.6 -21.6 -14.4
               q 4.5 9.0 14.4 16.2
               z"/>
      <path d="M 210.0 29.8
               q -9.0 -16.2 -3.6 -25.2
               q 3.6 3.6 3.6 10.8
               q 0.0 -7.2 3.6 -10.8
               q 5.4 9.0 -3.6 25.2
               z"/>
      <ellipse cx="190.2" cy="29.8" rx="6.3" ry="3.1" transform="rotate(-22 190.2 29.8)"/>
      <ellipse cx="229.8" cy="29.8" rx="6.3" ry="3.1" transform="rotate(22 229.8 29.8)"/>
      <ellipse cx="168.6" cy="37.0" rx="7.2" ry="3.6" transform="rotate(-18 168.6 37.0)"/>
      <ellipse cx="251.4" cy="37.0" rx="7.2" ry="3.6" transform="rotate(18 251.4 37.0)"/>
    </g>
    
  <text x="210" y="76" text-anchor="middle" font-family="Georgia, Times New Roman, serif" font-size="46" font-weight="700" letter-spacing="1.4" fill="#143629">HONEYSUCKLE</text>
  <g transform="translate(60, 10) scale(0.85)">
    
    <g fill="#143629" stroke="none">
      <rect x="116" y="126" width="68" height="42" rx="6"/>
      <rect x="134" y="118" width="30" height="8" rx="2"/>
      <circle cx="150" cy="147" r="14" fill="white"/>
      <circle cx="150" cy="147" r="8"/>
      <circle cx="174" cy="134" r="3"/>
      <rect x="142" y="170" width="16" height="10"/>
      <path d="M 150 180 L 138 196 H 146 L 150 188 L 154 196 H 162 Z"/>
      <path d="M 182 129
               q 18 14 5 35
               l 7 -1
               l -9 14
               l -9 -14
               l 6 1
               q 9 -14 0 -28 z"/>
    </g>
    
  </g>
  <text x="210" y="160" text-anchor="middle" font-family="Arial, Helvetica, sans-serif" font-size="24" font-weight="700" letter-spacing="1.6" fill="#143629">BLINK TIMELAPSE</text>
</svg>